<svg xmlns="http://www.w3.org/2000/svg" width="1724.731" height="1389.088" viewBox="0 0 1724.731 1389.088">
  <g id="Groupe_2698" data-name="Groupe 2698" transform="translate(-97.634 -941)">
  <!-- Missions -->
    <path id="Tracé_26565" data-name="Tracé 26565" d="M945.741,294.422H129.484C191.317,191.685,310.336,90.7,537.709,90.7S884.1,191.685,945.741,294.422Z" transform="translate(364.422 924.118)" fill="#f9b33f"/>
    <!-- Services -->
    <path id="Tracé_26566" data-name="Tracé 26566" d="M1089.483,372.29H136.951c.2-4.827.394-9.653.789-14.534,0,0,2.56-84.482,47.489-177.685,5.813-12.121,12.364-24.435,19.755-36.7h816.269c63.941,106.457,67.244,214.387,67.244,214.387C1088.891,362.637,1089.089,367.464,1089.483,372.29Z" transform="translate(385.834 1075.171)" fill="#e43445"/>
    <!-- Communauté -->
    <path id="Tracé_26567" data-name="Tracé 26567" d="M1069.3,244.631c-3.891,71.085-23.843,134.535-47.884,186.851H165.245c-28.67-62.414-51.577-140.692-48.081-228.922H1069.7Q1070.509,223.99,1069.3,244.631Z" transform="translate(328.081 1244.901)" fill="#22c9cd"/>
    <!-- Equipe -->
    <path id="Tracé_26568" data-name="Tracé 26568" d="M1005.557,261.751c-33.349,72.516-75.026,123.7-93.4,144.633A766.555,766.555,0,0,0,862.5,468.8c-5.221,7.337-10.048,14.53-14.925,21.921H307.563c-4.877-7.391-9.9-14.584-15.122-21.921a689.752,689.752,0,0,0-49.659-62.418,610.721,610.721,0,0,1-76.406-110.591c-5.813-10.74-11.525-22.118-16.994-34.042Z" transform="translate(371.679 1411.108)" fill="#0c64a4"/>
    <!-- Rejoignez -->
    <path id="Tracé_26569" data-name="Tracé 26569" d="M743.692,320.955c-4.807,6.9-9.51,13.741-14,20.54A1094.283,1094.283,0,0,0,643.86,496.919c-6.1,13.4-19.894,22.118-35.136,22.118H312.277c-15.5,0-29.3-8.717-35.4-22.118a1098.149,1098.149,0,0,0-99.623-175.964Z" transform="translate(501.612 1580.851)" fill="#7f0050"/>
   
   <!-- Eclaire top left -->
    <path id="Tracé_26564" data-name="Tracé 26564" d="M231.639,231.83A14.574,14.574,0,0,0,250.8,209.867L92.382,71.611,230.215,230.4A15.518,15.518,0,0,0,231.639,231.83Z" transform="translate(258.031 869.389)" fill="#f9d621"/>
    <!-- Ecalire bottom left -->
    <path id="Tracé_26571" data-name="Tracé 26571" d="M230.535,349.686,92.28,508.11,251.068,370.276a16.485,16.485,0,0,0,1.427-1.423,14.574,14.574,0,1,0-21.96-19.167Z" transform="translate(257.937 1648.932)" fill="#f9d621"/>
    <!-- Eclaire middle left  -->
    <path id="Tracé_26570" data-name="Tracé 26570" d="M236.8,225.6,27.022,239.857l209.746,14.82a15.855,15.855,0,0,0,2.011,0A14.573,14.573,0,0,0,236.8,225.6Z" transform="translate(70.612 1310.863)" fill="#f9d621"/>
   
    <!-- Eclaire bottom right -->
    <path id="Tracé_26572" data-name="Tracé 26572" d="M389.521,348.292a14.573,14.573,0,1,0-19.163,21.96l158.42,138.256L390.944,349.719A15.482,15.482,0,0,0,389.521,348.292Z" transform="translate(1041.007 1648.929)" fill="#f9d621"/>
    <!-- Ecalire middle right -->
    <path id="Tracé_26578" data-name="Tracé 26578" d="M430.316,225.6a15.971,15.971,0,0,0-2.019,0,14.574,14.574,0,1,0,1.98,29.08l209.781-14.259Z" transform="translate(1182.308 1310.865)" fill="#f9d621"/>
    <!-- Ecalire top right -->
    <path id="Tracé_26573" data-name="Tracé 26573" d="M368.959,210.97a14.574,14.574,0,1,0,21.959,19.167L529.173,71.713,370.385,209.547A15.975,15.975,0,0,0,368.959,210.97Z" transform="translate(1040.808 869.682)" fill="#f9d621"/>
    <!-- Effect Equipe Rejoignez -->
    <path id="Tracé_26574" data-name="Tracé 26574" d="M691.525,320.955c-4.583,6.9-9.065,13.741-13.351,20.54l-487.892-20.54Z" transform="translate(488.958 1580.876)" fill="#5b004c"/>
    <!-- Effect Communauté Equipe -->
    <path id="Tracé_26575" data-name="Tracé 26575" d="M928.017,261.751l-761.64,34.042c-5.813-10.74-11.525-22.118-16.994-34.042Z" transform="translate(421.482 1414.632)" fill="#004592"/>
   <!-- Effect Services Communauté -->
    <path id="Tracé_26576" data-name="Tracé 26576" d="M1011.549,244.631l-874.6-42.071h874.993Q1012.756,223.99,1011.549,244.631Z" transform="translate(385.834 1244.901)" fill="#00a6ac"/>
    <!-- Effect Missions Services -->
    <path id="Tracé_26577" data-name="Tracé 26577" d="M888.512,143.369l-739.078,36.7c5.813-12.121,12.364-24.435,19.755-36.7Z" transform="translate(421.628 1075.155)" fill="#c4244e"/>
    
    <rect id="Rectangle_1379" data-name="Rectangle 1379" width="342.435" height="44.071" rx="5.385" transform="translate(789.84 2137.286)" fill="#3e5564"/>
    <rect id="Rectangle_1380" data-name="Rectangle 1380" width="342.435" height="44.071" rx="5.385" transform="translate(789.84 2211.652)" fill="#3e5564"/>
    <rect id="Rectangle_1381" data-name="Rectangle 1381" width="342.435" height="44.071" rx="5.385" transform="translate(789.84 2286.017)" fill="#3e5564"/>
    <g id="Title" transform="translate(651.05 1379.024)">
      <text id="FEATURES" transform="translate(350.801 -24)" fill="#fff" font-size="52" font-family="Poppins-SemiBold, Poppins" font-weight="600" letter-spacing="0.357em"><tspan x="-284.719" y="0">Nos Services </tspan></text>
    </g>
    <g id="Title-2" data-name="Title" transform="translate(575.05 1159.177)">
      <text id="FEATURES-2" data-name="FEATURES" transform="translate(350.801 -8)" fill="#fff" font-size="52" font-family="Poppins-SemiBold, Poppins" font-weight="600" letter-spacing="0.357em"><tspan x="-179.114" y="0">Missions</tspan></text>
    </g>
    <g id="Title-3" data-name="Title" transform="translate(609.199 1604.422)">
      <text id="FEATURES-3" data-name="FEATURES" transform="translate(350.801 -24)" fill="#fff" font-size="52" font-family="Poppins-SemiBold, Poppins" font-weight="600" letter-spacing="0.357em"><tspan x="-285.413" y="0">Communauté </tspan></text>
    </g>
    <g id="Title-4" data-name="Title" transform="translate(609.199 1829.845)">
      <text id="FEATURES-4" data-name="FEATURES" transform="translate(350.801 -24)" fill="#fff" font-size="52" font-family="Poppins-SemiBold, Poppins" font-weight="600" letter-spacing="0.357em"><tspan x="-189.232" y="0">L&apos;équipe </tspan></text>
    </g>
    <g id="Title-5" data-name="Title" transform="translate(609.199 2001.347)">
      <text id="FEATURES-5" data-name="FEATURES" transform="translate(368.801 -21)" fill="#fff" font-size="52" font-family="Poppins-SemiBold, Poppins" font-weight="600" letter-spacing="0.357em"><tspan x="-216.925" y="0">Rejoignez </tspan><tspan x="-108.461" y="78">nous </tspan></text>
    </g>
  </g>
</svg>
