<?xml version="1.0" encoding="UTF-8"?>
<svg id="Layer_2" data-name="Layer 2" xmlns="http://www.w3.org/2000/svg" viewBox="0 0 445.96 379.23">
  <defs>
    <style>
      .cls-1 {
        fill: #f9b33f;
      }

      .cls-2 {
        fill: #f9d621;
      }

      .cls-3 {
        fill: #22c9cd;
      }

      .cls-4 {
        fill: #7f0050;
      }

      .cls-5 {
        fill: #e43445;
      }

      .cls-6 {
        fill: #3e5564;
      }

      .cls-7 {
        fill: #00a6ac;
      }

      .cls-8 {
        fill: #004592;
      }

      .cls-9 {
        fill: #5b004c;
      }

      .cls-10 {
        fill: #c4244e;
      }

      .cls-11 {
        fill: #0c64a4;
      }
    </style>
  </defs>
  <g id="OBJECTS">
    <path class="cls-1" d="m313.52,71.76H102.46c15.99-26.56,46.76-52.68,105.55-52.68s89.56,26.11,105.5,52.68Z"/>
    <path class="cls-5" d="m356.22,130.95H109.93c.05-1.25.1-2.5.2-3.76,0,0,.66-21.84,12.28-45.94,1.5-3.13,3.2-6.32,5.11-9.49h211.06c16.53,27.53,17.39,55.43,17.39,55.43.1,1.26.15,2.51.25,3.76Z"/>
    <path class="cls-3" d="m336.07,141.83c-1.01,18.38-6.16,34.79-12.38,48.31H102.31c-7.41-16.14-13.34-36.38-12.43-59.19h246.29c.14,3.69.1,7.32-.1,10.88Z"/>
    <path class="cls-11" d="m343.74,190.14c-8.62,18.75-19.4,31.98-24.15,37.4-4.52,5.11-8.83,10.52-12.84,16.14-1.35,1.9-2.6,3.76-3.86,5.67h-139.63c-1.26-1.91-2.56-3.77-3.91-5.67-3.96-5.62-8.27-11.03-12.84-16.14-3.97-4.52-12.14-14.51-19.76-28.6-1.5-2.78-2.98-5.72-4.39-8.8h221.38Z"/>
    <path class="cls-4" d="m296.7,249.34c-1.24,1.78-2.46,3.55-3.62,5.31-11.09,16.67-18.62,32.16-22.19,40.19-1.58,3.46-5.14,5.72-9.09,5.72h-76.65c-4.01,0-7.58-2.25-9.15-5.72-3.94-8.87-12.72-26.86-25.76-45.5h146.46Z"/>
    <g>
      <path class="cls-2" d="m101.37,41.43c1.57,1.37,3.95,1.21,5.32-.36,1.37-1.57,1.21-3.95-.36-5.32L65.36,0l35.64,41.06c.11.12.24.26.37.37Z"/>
      <path class="cls-2" d="m54.24,153.96l-54.24,3.69,54.23,3.83c.16.01.35.01.52,0,2.08-.14,3.65-1.94,3.5-4.02-.14-2.08-1.94-3.65-4.02-3.5Z"/>
      <path class="cls-2" d="m101.01,274.38l-35.75,40.96,41.06-35.64c.12-.11.26-.24.37-.37,1.37-1.57,1.21-3.95-.36-5.32-1.57-1.37-3.95-1.21-5.32.36Z"/>
      <path class="cls-2" d="m344.59,274.01c-1.57-1.37-3.95-1.21-5.32.36-1.37,1.57-1.21,3.95.36,5.32l40.96,35.75-35.64-41.06c-.11-.12-.24-.26-.37-.37Z"/>
      <path class="cls-2" d="m391.72,153.96c-.16-.01-.35-.01-.52,0-2.08.14-3.64,1.94-3.5,4.02.14,2.08,1.94,3.64,4.02,3.5l54.24-3.69-54.23-3.83Z"/>
      <path class="cls-2" d="m339.27,36.11c-1.37,1.57-1.21,3.95.36,5.32s3.95,1.21,5.32-.36L380.7.1l-41.06,35.64c-.12.11-.26.24-.37.37Z"/>
    </g>
    <path class="cls-9" d="m292.86,249.34c-1.18,1.78-2.34,3.55-3.45,5.31l-126.15-5.31h129.6Z"/>
    <path class="cls-8" d="m323.69,190.14l-196.93,8.8c-1.5-2.78-2.98-5.72-4.39-8.8h201.33Z"/>
    <path class="cls-7" d="m336.07,141.83l-226.14-10.88h226.24c.14,3.69.1,7.32-.1,10.88Z"/>
    <path class="cls-10" d="m313.51,71.76l-191.1,9.49c1.5-3.13,3.2-6.32,5.11-9.49h185.99Z"/>
    <rect class="cls-6" x="178.93" y="310.23" width="88.54" height="11.4" rx="5.39" ry="5.39"/>
    <rect class="cls-6" x="178.93" y="329.46" width="88.54" height="11.4" rx="5.39" ry="5.39"/>
    <rect class="cls-6" x="178.93" y="348.69" width="88.54" height="11.4" rx="5.39" ry="5.39"/>
    <rect class="cls-6" x="192.8" y="367.84" width="60.79" height="11.4" rx="5.39" ry="5.39"/>
  </g>
</svg>