<?xml version="1.0" encoding="UTF-8"?>
<svg id="Layer_2" data-name="Layer 2" xmlns="http://www.w3.org/2000/svg" viewBox="0 0 206.28 67">
  <defs>
    <style>
      .cls-1 {
        fill: #1b3338;
      }

      .cls-2, .cls-3 {
        fill: #2c545c;
      }

      .cls-4 {
        letter-spacing: 0em;
      }

      .cls-5 {
        letter-spacing: -.02em;
      }

      .cls-3 {
        font-family: Montserrat-Bold, Montserrat;
        font-size: 60.04px;
        font-weight: 700;
      }
    </style>
  </defs>
  <g id="OBJECTS">
    <g>
      <g>
        <polygon class="cls-2" points="4.55 41.93 1.37 50.67 41.8 50.67 38.61 41.93 4.55 41.93"/>
        <polygon class="cls-2" points="46.18 50.67 56.11 50.67 39.94 6.43 30.01 6.43 46.18 50.67"/>
        <polygon class="cls-2" points="28.17 38.43 18.24 38.43 29.89 6.43 39.82 6.43 28.17 38.43"/>
        <polygon class="cls-2" points="9.93 50.67 0 50.67 16.35 6.38 26.28 6.38 9.93 50.67"/>
        <polygon class="cls-1" points="39.82 6.43 36.32 23.79 34.91 19.91 39.82 6.43"/>
        <polygon class="cls-1" points="16.35 6.38 9.3 15.11 13.14 15.07 16.35 6.38"/>
        <polygon class="cls-1" points="9.93 50.67 13.16 41.93 16.35 41.93 9.93 50.67"/>
      </g>
      <text class="cls-3" transform="translate(58.52 51.03) scale(.98 1)"><tspan class="cls-4" x="0" y="0">L</tspan><tspan x="36.62" y="0">a</tspan><tspan class="cls-5" x="73.67" y="0">b</tspan><tspan x="113.65" y="0">7</tspan></text>
    </g>
  </g>
</svg>