<?xml version="1.0" encoding="UTF-8"?>
<svg id="Layer_2" data-name="Layer 2" xmlns="http://www.w3.org/2000/svg" viewBox="0 0 56.11 44.29">
  <defs>
    <style>
      .cls-1 {
        fill: #1b3338;
      }

      .cls-2 {
        fill: #2c545c;
      }
    </style>
  </defs>
  <g id="OBJECTS">
    <g>
      <polygon class="cls-2" points="4.55 35.56 1.37 44.29 41.8 44.29 38.61 35.56 4.55 35.56"/>
      <polygon class="cls-2" points="46.18 44.29 56.11 44.29 39.94 .05 30.01 .05 46.18 44.29"/>
      <polygon class="cls-2" points="28.17 32.05 18.24 32.05 29.89 .05 39.82 .05 28.17 32.05"/>
      <polygon class="cls-2" points="9.93 44.29 0 44.29 16.35 0 26.28 0 9.93 44.29"/>
      <polygon class="cls-1" points="39.82 .05 36.32 17.41 34.91 13.53 39.82 .05"/>
      <polygon class="cls-1" points="16.35 0 9.3 8.73 13.14 8.69 16.35 0"/>
      <polygon class="cls-1" points="9.93 44.29 13.16 35.56 16.35 35.56 9.93 44.29"/>
    </g>
  </g>
</svg>