<?xml version="1.0" encoding="UTF-8"?>
<svg id="Layer_2" data-name="Layer 2" xmlns="http://www.w3.org/2000/svg" xmlns:xlink="http://www.w3.org/1999/xlink" viewBox="0 0 154.68 261.67">
  <defs>
    <style>
      .cls-1 {
        fill: url(#linear-gradient-2);
      }

      .cls-2 {
        fill: #fff;
      }

      .cls-3 {
        filter: url(#drop-shadow-4);
      }

      .cls-4 {
        filter: url(#drop-shadow-3);
      }

      .cls-5 {
        filter: url(#drop-shadow-1);
      }

      .cls-6 {
        filter: url(#drop-shadow-2);
      }

      .cls-7 {
        fill: url(#linear-gradient-5);
      }

      .cls-8 {
        fill: url(#linear-gradient-3);
      }

      .cls-9 {
        fill: url(#linear-gradient);
      }

      .cls-10 {
        fill: url(#linear-gradient-4);
      }
    </style>
    <filter id="drop-shadow-1" filterUnits="userSpaceOnUse">
      <feOffset dx="7" dy="7"/>
      <feGaussianBlur result="blur" stdDeviation="5"/>
      <feFlood flood-color="#acacad" flood-opacity=".25"/>
      <feComposite in2="blur" operator="in"/>
      <feComposite in="SourceGraphic"/>
    </filter>
    <linearGradient id="linear-gradient" x1="11.68" y1="227" x2="129.66" y2="227" gradientUnits="userSpaceOnUse">
      <stop offset="0" stop-color="#fc9c10"/>
      <stop offset="1" stop-color="#ff5d15"/>
    </linearGradient>
    <filter id="drop-shadow-2" filterUnits="userSpaceOnUse">
      <feOffset dx="7" dy="7"/>
      <feGaussianBlur result="blur-2" stdDeviation="5"/>
      <feFlood flood-color="#acacad" flood-opacity=".25"/>
      <feComposite in2="blur-2" operator="in"/>
      <feComposite in="SourceGraphic"/>
    </filter>
    <filter id="drop-shadow-3" filterUnits="userSpaceOnUse">
      <feOffset dx="7" dy="7"/>
      <feGaussianBlur result="blur-3" stdDeviation="5"/>
      <feFlood flood-color="#acacad" flood-opacity=".25"/>
      <feComposite in2="blur-3" operator="in"/>
      <feComposite in="SourceGraphic"/>
    </filter>
    <linearGradient id="linear-gradient-2" x1="-118.39" y1="-28.73" x2="-64.59" y2="25.08" gradientTransform="translate(130.68 125.01) rotate(45)" xlink:href="#linear-gradient"/>
    <linearGradient id="linear-gradient-3" x1="79.53" y1="61.19" x2="146.83" y2="61.19" gradientUnits="userSpaceOnUse">
      <stop offset="0" stop-color="#fc9c10"/>
      <stop offset="1" stop-color="#fecd2f"/>
    </linearGradient>
    <filter id="drop-shadow-4" filterUnits="userSpaceOnUse">
      <feOffset dx="7" dy="7"/>
      <feGaussianBlur result="blur-4" stdDeviation="5"/>
      <feFlood flood-color="#acacad" flood-opacity=".25"/>
      <feComposite in2="blur-4" operator="in"/>
      <feComposite in="SourceGraphic"/>
    </filter>
    <linearGradient id="linear-gradient-4" x1="62.66" y1="44.81" x2="69.09" y2="44.81" xlink:href="#linear-gradient"/>
    <linearGradient id="linear-gradient-5" x1="50.4" y1="45.51" x2="82.75" y2="45.51" xlink:href="#linear-gradient"/>
  </defs>
  <g id="OBJECTS">
    <g>
      <g>
        <g class="cls-5">
          <path class="cls-9" d="m11.68,204.42v22c0,6.51,3.87,12.4,9.85,14.98l43.87,18.94c4.21,1.82,9,1.78,13.18-.11l41.47-18.74c5.84-2.64,9.6-8.46,9.6-14.87v-22.2c0-6.67-5.41-12.08-12.08-12.08H23.76c-6.67,0-12.08,5.41-12.08,12.08Z"/>
        </g>
        <g class="cls-6">
          <path class="cls-2" d="m129.84,214.59l-49.69,22.45c-5.01,2.26-10.75,2.31-15.79.13l-52.56-22.69c-7.16-3.09-11.8-10.15-11.8-17.95V48.34c0-15.42,16.12-25.53,30-18.82l99.39,48.03c7.3,3.53,11.94,10.92,11.94,19.03v100.21c0,7.68-4.5,14.65-11.5,17.81Z"/>
        </g>
      </g>
      <g>
        <g class="cls-4">
          <circle class="cls-1" cx="67.28" cy="44.21" r="44.21"/>
        </g>
        <path class="cls-8" d="m152.3,66.23l-21.93-21.93c-2.21-2.21-5.82-2.51-8.19-.46-1.37,1.18-2.05,2.83-2.04,4.47,0,1.51.57,3.02,1.72,4.17l13.42,13.42h-54.69c-10.14,6.18-23.68,4.63-32.12-4.65-8.62-9.48-8.8-24.1-.4-33.78,0,0,0,0,0,0l-6.53-6.53c-5.71,6.32-9.17,14.71-9.1,23.91.15,19.44,16.26,34.99,35.7,34.99h65.34s-11.62,11.62-11.62,11.62c-2.35,2.35-2.3,6.18.14,8.47,2.29,2.16,6.16,1.93,8.38-.3l21.91-21.91c3.17-3.17,3.17-8.32,0-11.49Z"/>
        <g class="cls-3">
          <circle class="cls-2" cx="67.34" cy="44.14" r="25.48"/>
        </g>
        <g>
          <path class="cls-10" d="m65.88,41.6c-1.78,0-3.22,1.43-3.22,3.21s1.44,3.21,3.22,3.21,3.21-1.44,3.21-3.21-1.44-3.21-3.21-3.21Zm-.54,3.57c-.52,0-.94-.42-.94-.94s.42-.94.94-.94.94.42.94.94-.42.94-.94.94Z"/>
          <path class="cls-7" d="m66.57,37.5c-8.93,0-16.17,8.01-16.17,8.01,0,0,7.24,8.01,16.17,8.01s16.18-8.01,16.18-8.01c0,0-7.24-8.01-16.18-8.01Zm0,14.41c-3.53,0-6.4-2.87-6.4-6.4s2.87-6.4,6.4-6.4,6.4,2.86,6.4,6.4-2.86,6.4-6.4,6.4Z"/>
        </g>
      </g>
    </g>
  </g>
</svg>